<mxfile host="app.diagrams.net" modified="2023-07-31T08:38:44.244Z" agent="Mozilla/5.0 (X11; Linux x86_64) AppleWebKit/537.36 (KHTML, like Gecko) Chrome/114.0.0.0 Safari/537.36 Edg/114.0.1823.67" version="21.6.1" etag="b98mBHVUxm3cEZTLeRzt" type="github">
  <diagram name="第 1 页" id="ugtEYNCoT0SjDMXIqZ7P">
    <mxGraphModel>
      <root>
        <mxCell id="0" />
        <mxCell id="1" parent="0" />
      </root>
    </mxGraphModel>
  </diagram>
</mxfile>
